<?xml version="1.0" standalone="no"?>
<!DOCTYPE svg PUBLIC "-//W3C//DTD SVG 20010904//EN"
 "http://www.w3.org/TR/2001/REC-SVG-20010904/DTD/svg10.dtd">
<svg version="1.0" xmlns="http://www.w3.org/2000/svg"
 width="533.000000pt" height="375.000000pt" viewBox="0 0 533.000000 375.000000"
 preserveAspectRatio="xMidYMid meet">

<g transform="translate(0.000000,375.000000) scale(0.100000,-0.100000)"
fill="#000000" stroke="none">
<path d="M1533 3583 c626 -2 1648 -2 2270 0 623 1 111 2 -1138 2 -1249 0
-1758 -1 -1132 -2z"/>
<path d="M303 3562 c-24 -9 -43 -19 -43 -23 0 -4 21 1 48 11 26 9 54 20 62 23
10 4 9 5 -5 5 -11 0 -39 -8 -62 -16z"/>
<path d="M4990 3561 c55 -20 78 -21 43 -3 -10 6 -36 13 -58 17 -36 5 -34 4 15
-14z"/>
<path d="M5060 3531 c0 -5 7 -12 16 -15 14 -5 15 -4 4 9 -14 17 -20 19 -20 6z"/>
<path d="M227 3523 c-4 -3 -7 -11 -7 -17 0 -6 5 -5 12 2 6 6 9 14 7 17 -3 3
-9 2 -12 -2z"/>
<path d="M5100 3486 c0 -2 8 -10 18 -17 15 -13 16 -12 3 4 -13 16 -21 21 -21
13z"/>
<path d="M155 3429 c-4 -6 -5 -12 -2 -15 2 -3 7 2 10 11 7 17 1 20 -8 4z"/>
<path d="M131 3354 c0 -11 3 -14 6 -6 3 7 2 16 -1 19 -3 4 -6 -2 -5 -13z"/>
<path d="M5171 3334 c0 -11 3 -14 6 -6 3 7 2 16 -1 19 -3 4 -6 -2 -5 -13z"/>
<path d="M522 3323 c-6 -3 -10 -9 -6 -14 3 -5 -11 -9 -31 -9 -22 0 -38 -6 -41
-15 -4 -8 -12 -15 -20 -15 -8 0 -14 -10 -14 -25 0 -16 -6 -25 -15 -25 -8 0
-15 -7 -15 -15 0 -8 7 -15 15 -15 10 0 14 -9 13 -27 -4 -65 2 -103 17 -103 8
0 15 -9 15 -20 0 -11 9 -28 20 -37 11 -10 20 -23 20 -30 0 -7 9 -13 20 -13 11
0 20 -7 20 -15 0 -8 14 -17 35 -21 19 -3 33 -11 32 -18 -1 -6 14 -12 36 -14
22 -2 47 -12 59 -24 19 -19 19 -22 4 -30 -9 -5 -16 -16 -16 -23 0 -8 -6 -15
-14 -15 -8 0 -22 -8 -32 -17 -13 -13 -38 -19 -93 -22 -51 -2 -79 -8 -84 -17
-4 -8 -15 -14 -22 -14 -12 0 -15 -17 -15 -77 0 -86 -7 -126 -21 -117 -5 3 -9
-305 -9 -729 0 -640 2 -736 15 -741 8 -3 12 -12 9 -21 -3 -8 -10 -12 -15 -9
-5 3 -9 -2 -9 -10 0 -9 13 -18 35 -22 19 -3 32 -10 30 -15 -3 -4 22 -11 55
-15 34 -4 67 -13 75 -20 7 -8 19 -14 25 -14 21 0 40 -28 40 -59 0 -27 -4 -31
-26 -31 -17 0 -28 -6 -31 -20 -4 -14 -14 -20 -34 -20 -20 0 -29 -5 -29 -16 0
-9 -9 -18 -20 -21 -15 -4 -20 -14 -20 -39 0 -27 -4 -34 -20 -34 -11 0 -20 -4
-20 -10 0 -5 -7 -10 -15 -10 -10 0 -15 -11 -15 -35 0 -24 -5 -35 -15 -35 -11
0 -15 -12 -15 -50 0 -38 4 -50 15 -50 8 0 15 -9 15 -20 0 -11 7 -20 15 -20 8
0 15 -7 15 -15 0 -13 13 -15 73 -13 46 2 71 7 70 14 -1 6 16 14 39 17 23 3 45
13 50 21 5 9 16 16 23 16 8 0 15 6 15 14 0 7 9 16 21 19 12 3 18 10 14 17 -4
7 2 14 14 17 12 3 21 11 21 19 0 7 7 17 16 22 8 5 18 27 21 50 3 23 10 42 15
42 5 0 17 7 26 16 14 15 16 15 24 -5 4 -11 14 -21 22 -21 9 0 18 -11 22 -25 3
-14 10 -25 15 -25 5 0 9 -15 9 -34 0 -21 6 -36 15 -40 8 -3 15 -12 15 -21 0
-8 7 -15 15 -15 19 0 19 -19 0 -26 -9 -4 -15 -19 -15 -40 l0 -34 577 0 c318 1
589 4 603 7 22 6 23 7 5 14 -13 5 -1 8 35 8 34 0 50 -3 42 -8 -11 -7 -10 -10
3 -15 23 -8 177 -8 256 1 l64 8 -45 6 c-25 3 381 7 902 7 l947 2 10 52 c6 29
13 70 16 91 4 23 11 37 20 37 8 0 15 9 15 20 0 16 7 20 31 20 22 0 32 -5 36
-20 3 -11 11 -20 18 -20 7 0 16 -16 19 -35 4 -20 11 -33 17 -29 6 3 13 -3 16
-15 3 -12 11 -21 18 -21 7 0 15 -9 18 -19 3 -11 17 -22 36 -26 17 -4 31 -11
31 -16 0 -5 11 -11 25 -15 14 -3 25 -12 25 -20 0 -11 20 -14 90 -14 70 0 90 3
90 14 0 7 9 16 20 19 18 5 20 13 19 104 0 100 -7 137 -24 131 -6 -2 -11 11
-13 29 -3 28 -8 33 -38 39 -19 3 -34 12 -34 20 0 8 -6 14 -14 14 -8 0 -16 7
-19 15 -4 8 -26 17 -57 21 -32 4 -50 11 -50 20 0 8 -10 14 -25 14 -16 0 -25 6
-25 15 0 8 7 15 15 15 8 0 15 4 15 10 0 21 36 50 62 50 15 0 31 6 35 14 5 9
34 15 81 19 41 3 75 7 76 9 1 1 10 19 19 40 15 33 17 97 16 680 -1 646 -8
1011 -21 1023 -3 4 -35 9 -70 12 -35 3 -66 11 -70 16 -3 6 -16 12 -29 14 -25
4 -64 42 -74 72 -4 15 1 20 29 25 19 4 37 13 40 22 3 8 11 12 17 9 6 -4 13 2
16 13 3 12 17 22 36 26 25 5 29 9 17 16 -13 8 -12 10 3 10 9 0 17 7 17 15 0 8
7 15 15 15 8 0 15 9 15 20 0 10 7 23 15 27 22 13 38 117 28 178 l-9 50 -109 0
c-101 0 -112 -2 -133 -22 -12 -13 -22 -27 -22 -32 0 -5 -13 -12 -29 -16 -16
-3 -32 -13 -35 -21 -3 -8 -12 -14 -20 -14 -8 0 -16 -14 -20 -34 -4 -19 -13
-37 -21 -40 -10 -3 -15 -19 -15 -46 0 -39 -1 -40 -35 -40 -24 0 -35 5 -35 15
0 8 -7 15 -16 15 -9 0 -18 9 -21 20 -3 11 -11 20 -18 20 -14 0 -22 36 -31 138
-5 51 -10 62 -24 62 -10 0 -20 6 -22 12 -4 10 -59 14 -221 16 -192 3 -217 2
-217 -12 0 -9 -9 -16 -21 -16 -11 0 -17 5 -14 10 4 6 -7 10 -24 10 -17 0 -31
-4 -31 -10 0 -5 -25 -10 -55 -10 -39 0 -54 4 -53 13 2 8 -18 13 -72 14 -91 2
-131 -4 -109 -18 10 -6 5 -9 -18 -9 -18 0 -33 5 -33 10 0 6 -7 10 -16 10 -8 0
-13 -4 -9 -9 7 -12 -344 -18 -620 -12 -143 4 -173 7 -120 11 39 4 -96 8 -300
10 -548 4 -900 0 -903 -11 -2 -5 -28 -9 -58 -9 -34 0 -53 4 -49 10 3 6 -3 10
-15 10 -12 0 -18 -4 -15 -10 4 -7 -52 -10 -162 -10 -187 0 -213 -4 -213 -30 0
-10 -6 -25 -14 -33 -8 -8 -17 -32 -21 -53 -3 -21 -11 -56 -17 -76 -10 -34 -15
-38 -45 -38 -23 0 -33 5 -33 15 0 8 -7 15 -15 15 -8 0 -17 11 -21 24 -3 14
-12 27 -20 30 -8 3 -14 11 -14 17 0 17 -78 89 -95 89 -8 0 -15 6 -15 14 0 10
-18 17 -57 22 -32 4 -62 12 -68 19 -5 7 -16 11 -23 8z m1015 -19 c-3 -3 -12
-4 -19 -1 -8 3 -5 6 6 6 11 1 17 -2 13 -5z m-997 -59 c0 -8 -4 -15 -10 -15 -5
0 -10 7 -10 15 0 8 5 15 10 15 6 0 10 -7 10 -15z m3650 -6 c0 -24 -23 -21 -28
4 -2 10 3 17 12 17 10 0 16 -9 16 -21z m-3680 -64 c0 -10 -10 -15 -30 -15 -20
0 -30 5 -30 15 0 10 10 15 30 15 20 0 30 -5 30 -15z m3690 0 c0 -8 7 -15 15
-15 10 0 15 -10 15 -30 0 -19 5 -30 14 -30 8 0 17 -15 20 -35 4 -19 11 -35 16
-35 7 0 22 -30 25 -50 1 -13 41 -50 52 -50 7 0 21 -9 30 -20 12 -13 30 -20 53
-20 40 0 90 -20 90 -35 0 -6 9 -18 20 -28 11 -9 20 -28 20 -42 0 -18 5 -25 20
-25 11 0 20 -7 20 -15 0 -8 7 -15 15 -15 8 0 15 -6 15 -14 0 -8 11 -17 25 -20
14 -4 25 -13 25 -21 0 -11 11 -15 40 -15 22 0 40 -4 40 -10 0 -5 7 -10 15 -10
8 0 15 -9 15 -19 0 -10 7 -21 15 -25 17 -6 21 -66 5 -66 -13 0 -13 -53 0 -66
9 -9 16 -1286 8 -1325 -5 -23 -20 -29 -80 -29 -40 0 -58 -4 -58 -12 0 -7 -27
-26 -60 -42 -53 -26 -66 -40 -61 -68 0 -4 -8 -12 -18 -17 -11 -6 -21 -26 -25
-51 -3 -22 -11 -40 -16 -40 -6 0 -10 -7 -10 -16 0 -9 -9 -18 -20 -21 -11 -3
-20 -12 -20 -19 0 -9 -11 -14 -29 -14 -23 0 -34 -8 -51 -35 -12 -19 -28 -35
-36 -35 -8 0 -14 -9 -14 -20 0 -11 -7 -20 -15 -20 -8 0 -17 -11 -21 -25 -3
-14 -10 -25 -15 -25 -4 0 -11 -16 -15 -35 -5 -29 -11 -35 -31 -35 -13 0 -31 7
-40 15 -14 14 -17 14 -33 0 -13 -12 -33 -14 -101 -10 -162 11 -969 15 -969 5
0 -14 -68 -12 -72 2 -6 16 -118 12 -118 -4 0 -12 -68 -10 -75 2 -8 13 -192 13
-200 1 -3 -6 -159 -10 -371 -10 -202 -1 -371 -4 -376 -7 -4 -3 -6 -10 -3 -15
4 -5 -1 -9 -9 -9 -9 0 -15 6 -14 13 2 9 -74 12 -351 14 -317 2 -355 4 -372 19
-11 9 -19 25 -19 35 0 9 -5 19 -11 21 -5 2 -13 22 -16 46 -3 26 -11 42 -19 42
-8 0 -14 9 -14 20 0 11 -7 20 -15 20 -8 0 -15 7 -15 15 0 8 -9 15 -20 15 -11
0 -20 7 -20 15 0 8 -9 15 -19 15 -11 0 -26 7 -35 15 -8 8 -29 18 -45 21 -17 4
-31 13 -31 20 0 8 -9 14 -20 14 -11 0 -20 5 -20 10 0 6 -7 10 -15 10 -8 0 -15
9 -15 20 0 11 -6 23 -14 26 -8 3 -18 19 -21 35 -5 22 -12 29 -30 29 -14 0 -29
9 -35 20 -6 11 -17 20 -25 20 -8 0 -15 7 -15 15 0 8 -3 14 -7 14 -5 -1 -25 -1
-45 0 -31 1 -38 5 -38 21 0 11 -7 20 -15 20 -12 0 -15 14 -15 63 0 44 3 58 10
47 7 -10 10 5 10 53 0 43 -4 66 -10 62 -7 -4 -10 173 -10 524 0 524 0 531 -20
531 -11 0 -20 7 -20 15 0 8 9 15 20 15 12 0 20 7 20 18 0 13 2 14 9 4 13 -21
19 27 11 79 -5 29 -8 35 -10 19 -2 -21 -3 -20 -10 10 -5 19 -7 36 -6 38 2 1
26 5 55 9 28 3 51 10 51 14 0 5 14 9 30 9 19 0 30 5 30 14 0 8 15 17 35 20 21
4 35 13 35 21 0 8 6 15 14 15 8 0 17 13 21 29 3 16 13 32 21 35 8 3 14 19 14
41 0 24 4 35 15 35 9 0 15 9 15 25 0 20 6 25 34 31 19 3 37 12 40 20 3 8 15
14 27 14 12 0 23 8 26 20 3 11 12 20 19 20 8 0 14 6 14 13 0 7 9 20 20 30 11
9 20 26 20 37 0 11 7 20 15 20 10 0 15 10 15 30 0 23 4 30 20 30 11 0 20 7 20
15 0 13 178 15 1540 15 1362 0 1540 -2 1540 -15z m-3583 -32 c10 -26 29 -43
47 -43 9 0 16 -8 16 -19 0 -10 7 -22 16 -25 24 -9 6 -26 -27 -26 -18 0 -29 5
-29 14 0 8 -7 17 -16 20 -8 3 -12 10 -9 16 3 6 -2 13 -12 17 -28 11 -56 40
-48 52 10 18 55 13 62 -6z m4147 -19 c11 -41 -2 -81 -27 -88 -35 -9 -47 -7
-47 9 0 8 -4 15 -10 15 -5 0 -10 7 -10 15 0 19 31 55 47 55 7 0 13 5 13 10 0
22 28 8 34 -16z m136 -1069 c0 -8 -7 -15 -15 -15 -8 0 -15 7 -15 15 0 8 7 15
15 15 8 0 15 -7 15 -15z m-4260 -1065 c0 -5 -4 -10 -10 -10 -5 0 -10 5 -10 10
0 6 5 10 10 10 6 0 10 -4 10 -10z m4080 -242 c0 -38 12 -68 25 -68 8 0 17 -15
21 -32 3 -18 13 -38 22 -44 13 -9 13 -12 -2 -17 -10 -4 -16 -1 -16 8 0 8 -7
15 -16 15 -19 0 -64 40 -64 58 0 6 -4 12 -10 12 -5 0 -10 12 -10 26 0 21 4 25
18 22 15 -4 18 -1 14 18 -2 14 0 24 7 24 6 0 11 -10 11 -22z m-4080 -27 c0 -5
9 -11 20 -14 28 -7 25 -47 -5 -75 -20 -20 -31 -23 -63 -17 -32 5 -38 10 -40
34 -2 23 4 30 33 41 19 8 35 20 35 27 0 7 5 13 10 13 6 0 10 -4 10 -9z"/>
<path d="M531 2354 c0 -11 3 -14 6 -6 3 7 2 16 -1 19 -3 4 -6 -2 -5 -13z"/>
<path d="M1413 3313 c9 -2 23 -2 30 0 6 3 -1 5 -18 5 -16 0 -22 -2 -12 -5z"/>
<path d="M2868 3313 c7 -3 16 -2 19 1 4 3 -2 6 -13 5 -11 0 -14 -3 -6 -6z"/>
<path d="M3068 3313 c6 -2 18 -2 25 0 6 3 1 5 -13 5 -14 0 -19 -2 -12 -5z"/>
<path d="M3128 3313 c6 -2 18 -2 25 0 6 3 1 5 -13 5 -14 0 -19 -2 -12 -5z"/>
<path d="M3313 3313 c9 -2 25 -2 35 0 9 3 1 5 -18 5 -19 0 -27 -2 -17 -5z"/>
<path d="M5171 464 c0 -11 3 -14 6 -6 3 7 2 16 -1 19 -3 4 -6 -2 -5 -13z"/>
<path d="M140 445 c0 -5 5 -17 10 -25 5 -8 10 -10 10 -5 0 6 -5 17 -10 25 -5
8 -10 11 -10 5z"/>
<path d="M5146 393 c-6 -14 -5 -15 5 -6 7 7 10 15 7 18 -3 3 -9 -2 -12 -12z"/>
<path d="M160 391 c0 -6 4 -13 10 -16 6 -3 7 1 4 9 -7 18 -14 21 -14 7z"/>
<path d="M5065 299 c-4 -6 -5 -12 -2 -15 2 -3 7 2 10 11 7 17 1 20 -8 4z"/>
<path d="M244 291 c7 -11 46 -35 46 -28 0 3 -12 12 -26 22 -15 9 -23 12 -20 6z"/>
<path d="M5015 270 c-3 -5 -1 -10 4 -10 6 0 11 5 11 10 0 6 -2 10 -4 10 -3 0
-8 -4 -11 -10z"/>
<path d="M408 233 c6 -2 18 -2 25 0 6 3 1 5 -13 5 -14 0 -19 -2 -12 -5z"/>
<path d="M4878 233 c7 -3 16 -2 19 1 4 3 -2 6 -13 5 -11 0 -14 -3 -6 -6z"/>
</g>
</svg>
